<?xml version="1.0" standalone="no"?>
<!DOCTYPE svg PUBLIC "-//W3C//DTD SVG 20010904//EN"
 "http://www.w3.org/TR/2001/REC-SVG-20010904/DTD/svg10.dtd">
<svg version="1.0" xmlns="http://www.w3.org/2000/svg"
 width="4720.000000pt" height="4720.000000pt" viewBox="0 0 4720.000000 4720.000000"
 preserveAspectRatio="xMidYMid meet">
<metadata>
Created by potrace 1.11, written by Peter Selinger 2001-2013
</metadata>
<g transform="translate(0.000000,4720.000000) scale(0.100000,-0.100000)"
fill="#000000" stroke="none">
<path d="M23480 47179 c-647 -72 -1161 -576 -1251 -1227 -10 -66 -13 -667 -13
-2494 -1 -1325 -4 -2408 -8 -2408 -5 0 -8 3 -8 8 0 4 -17 25 -38 48 -20 22
-57 65 -82 94 -25 30 -88 104 -140 164 -52 61 -104 122 -116 136 -78 92 -160
187 -169 196 -5 6 -30 35 -55 64 -25 30 -74 88 -110 130 -102 118 -104 120
-181 210 -40 47 -94 110 -120 140 -26 30 -80 93 -120 140 -40 47 -94 110 -120
140 -107 126 -245 287 -264 309 -11 13 -25 29 -30 35 -6 6 -51 58 -100 116
-49 58 -100 116 -112 130 -11 14 -81 95 -154 180 -72 85 -155 182 -183 214
-76 88 -136 158 -160 186 -48 56 -442 517 -462 540 -12 14 -230 268 -484 565
-592 691 -553 645 -640 744 -67 77 -102 113 -189 189 -50 44 -191 134 -278
176 -94 46 -169 74 -273 101 -241 63 -558 52 -795 -26 -96 -32 -261 -115 -354
-177 -100 -67 -266 -226 -343 -329 -135 -181 -234 -427 -267 -668 -13 -96 -6
-332 13 -435 48 -261 174 -508 372 -730 18 -19 145 -168 284 -330 138 -162
262 -306 274 -320 67 -78 242 -282 316 -370 30 -36 57 -67 61 -70 3 -3 76 -88
163 -190 87 -102 168 -196 180 -210 81 -94 278 -325 313 -366 104 -124 322
-378 358 -418 6 -6 35 -40 65 -76 30 -36 60 -70 65 -76 6 -6 30 -35 55 -64 25
-30 59 -70 76 -90 48 -54 52 -60 579 -675 274 -319 509 -593 524 -610 14 -16
78 -91 141 -165 63 -74 117 -137 120 -140 3 -3 111 -129 240 -280 129 -151
245 -286 256 -300 12 -14 84 -97 159 -185 76 -88 149 -174 164 -190 14 -17 39
-46 55 -65 16 -19 52 -62 81 -95 29 -33 364 -424 745 -869 l693 -810 -1 -4825
c0 -2654 -1 -4835 -1 -4846 -1 -14 -1089 1068 -3470 3449 l-3468 3468 -7 142
c-3 77 -8 152 -10 166 -3 14 -7 72 -11 129 -4 57 -8 113 -10 125 -2 11 -6 68
-10 126 -3 58 -8 119 -10 135 -2 17 -7 75 -11 130 -3 55 -7 107 -9 115 -1 8
-6 67 -9 130 -4 63 -9 129 -11 145 -2 17 -7 71 -10 120 -3 50 -8 108 -10 130
-2 22 -7 76 -10 120 -3 44 -8 103 -10 130 -2 28 -7 86 -10 130 -3 44 -8 100
-10 125 -2 25 -7 81 -10 125 -13 178 -25 325 -30 385 -2 25 -7 83 -10 130 -3
47 -7 105 -10 130 -2 25 -7 81 -10 125 -7 104 -14 198 -20 260 -2 28 -7 86
-10 130 -3 44 -8 98 -10 120 -2 22 -7 85 -10 140 -4 55 -8 111 -10 125 -2 14
-6 70 -10 125 -3 55 -8 116 -10 135 -3 19 -7 71 -10 115 -3 44 -8 107 -11 140
-9 108 -13 169 -19 250 -3 44 -8 100 -10 125 -2 25 -7 81 -10 125 -9 133 -21
283 -30 375 -2 25 -7 90 -10 145 -4 55 -8 111 -10 125 -2 14 -6 70 -10 125 -3
55 -8 111 -10 125 -2 14 -7 74 -10 135 -4 60 -8 116 -10 125 -1 8 -6 65 -10
125 -3 61 -8 124 -10 140 -2 17 -6 64 -9 105 -18 239 -27 351 -31 395 -2 28
-7 84 -10 125 -9 137 -32 427 -40 510 -3 25 -7 90 -10 145 -3 55 -8 111 -10
125 -2 14 -7 68 -10 120 -4 52 -8 109 -10 125 -2 17 -6 80 -10 140 -4 61 -9
117 -10 126 -2 9 -6 67 -10 130 -4 63 -8 121 -10 129 -2 8 -7 56 -10 105 -3
50 -8 110 -10 135 -2 25 -7 86 -10 135 -3 50 -8 106 -10 125 -5 41 -13 151
-29 375 -4 50 -9 110 -11 135 -3 25 -7 79 -10 120 -23 317 -143 603 -357 851
-49 57 -105 109 -213 197 -40 33 -180 115 -249 147 -185 85 -366 126 -566 128
-169 2 -237 -5 -383 -42 -381 -96 -704 -347 -897 -696 -72 -130 -138 -325
-157 -464 -15 -103 -8 -462 12 -616 2 -16 7 -73 10 -125 3 -52 8 -113 10 -135
2 -22 7 -76 10 -120 3 -44 8 -102 10 -130 2 -27 7 -90 10 -140 3 -49 8 -106
10 -125 2 -19 7 -80 10 -135 4 -55 8 -111 10 -125 2 -14 6 -70 10 -125 3 -55
8 -116 10 -135 2 -19 7 -75 10 -125 3 -49 8 -108 10 -130 2 -22 7 -74 10 -115
11 -163 25 -347 30 -395 2 -27 7 -86 10 -130 3 -44 8 -102 10 -130 7 -85 15
-177 20 -245 5 -68 22 -295 30 -390 2 -30 7 -89 10 -130 10 -135 16 -214 20
-250 2 -19 7 -78 10 -130 4 -52 8 -111 10 -130 2 -19 6 -78 10 -130 3 -52 8
-111 10 -130 2 -19 7 -78 10 -130 4 -52 8 -106 10 -120 2 -14 7 -72 10 -130 4
-58 8 -116 10 -130 2 -14 6 -72 10 -130 3 -58 8 -116 10 -130 2 -14 7 -68 10
-120 3 -52 8 -111 10 -130 2 -19 7 -78 10 -130 4 -52 8 -111 10 -130 2 -19 7
-80 10 -135 4 -55 8 -111 10 -125 2 -14 6 -68 10 -120 3 -52 8 -111 10 -130 2
-19 7 -78 10 -130 4 -52 9 -108 11 -125 4 -24 -330 305 -1783 1756 -983 982
-1810 1804 -1838 1826 -368 296 -880 387 -1334 236 -218 -72 -384 -175 -552
-343 -168 -167 -275 -338 -348 -555 -55 -167 -66 -241 -66 -455 0 -176 3 -206
27 -307 44 -186 112 -340 221 -503 39 -58 437 -462 1751 -1778 936 -937 1703
-1705 1706 -1708 3 -4 -26 -3 -65 0 -69 6 -130 10 -295 21 -47 3 -110 8 -140
10 -30 3 -154 12 -275 20 -294 20 -360 25 -425 30 -30 3 -100 7 -155 10 -55 3
-118 8 -140 10 -22 2 -80 7 -130 10 -49 3 -117 8 -150 10 -33 3 -94 7 -135 10
-41 3 -102 7 -135 10 -33 3 -94 7 -135 10 -158 10 -237 16 -290 20 -30 2 -93
7 -140 10 -47 3 -110 8 -140 10 -30 2 -93 7 -140 10 -47 3 -110 8 -140 10 -30
2 -98 7 -150 10 -52 3 -117 8 -145 10 -27 3 -149 11 -270 20 -204 13 -269 18
-430 30 -33 2 -96 7 -140 10 -44 3 -107 8 -140 10 -33 2 -98 7 -145 10 -47 3
-110 7 -140 10 -30 2 -91 7 -135 10 -44 3 -109 7 -145 10 -152 11 -210 15
-295 20 -49 4 -110 8 -135 10 -25 2 -90 7 -145 10 -55 4 -118 8 -140 10 -242
21 -490 26 -598 13 -73 -10 -242 -53 -307 -78 -195 -77 -350 -179 -500 -329
-212 -213 -338 -450 -396 -746 -24 -122 -24 -375 0 -505 52 -288 183 -537 396
-751 243 -244 534 -382 875 -413 54 -5 227 -18 435 -31 41 -3 98 -7 125 -10
28 -2 95 -7 150 -10 55 -4 118 -8 140 -10 22 -2 85 -6 140 -10 55 -4 111 -8
125 -10 14 -2 79 -7 145 -10 66 -4 131 -8 145 -10 14 -2 72 -6 130 -10 58 -3
121 -8 140 -10 19 -2 85 -7 145 -11 61 -3 126 -7 145 -9 19 -2 80 -6 135 -9
55 -4 120 -9 145 -11 41 -4 85 -7 280 -20 173 -12 229 -16 280 -20 30 -3 93
-7 140 -10 47 -3 114 -7 150 -10 36 -3 99 -7 140 -10 41 -3 102 -8 135 -10 33
-2 94 -7 135 -10 318 -21 499 -34 570 -40 30 -2 98 -7 150 -10 52 -3 111 -8
130 -10 19 -2 85 -6 146 -10 61 -3 124 -8 140 -10 16 -1 81 -6 144 -10 63 -3
126 -8 140 -10 14 -2 77 -6 140 -10 63 -4 126 -8 140 -10 14 -2 77 -6 140 -10
63 -4 126 -8 140 -10 14 -2 77 -6 140 -10 63 -4 126 -8 140 -10 14 -2 75 -6
135 -10 61 -3 126 -8 145 -10 19 -2 85 -7 145 -10 61 -3 133 -8 160 -10 28 -2
86 -7 130 -10 44 -3 107 -8 140 -10 92 -8 330 -24 425 -30 47 -3 112 -7 145
-10 91 -7 191 -14 280 -20 44 -3 105 -8 135 -10 30 -2 93 -7 140 -10 47 -3
110 -8 140 -10 30 -2 93 -7 140 -10 47 -3 110 -8 140 -10 30 -3 93 -7 140 -10
47 -3 112 -8 145 -10 100 -8 195 -14 290 -20 50 -3 110 -8 135 -10 25 -2 90
-7 145 -10 55 -3 116 -8 135 -11 31 -4 429 -398 3614 -3584 l3579 -3580 -4735
0 -4735 0 -54 58 c-57 59 -69 70 -329 292 -85 73 -166 142 -180 154 -14 12
-86 73 -160 136 -74 63 -153 130 -175 149 -22 20 -63 55 -90 78 -28 23 -68 56
-89 75 -108 92 -418 356 -466 398 -74 64 -206 176 -266 227 -105 89 -134 113
-313 267 -102 87 -208 178 -236 201 -51 44 -179 153 -274 234 -29 25 -63 54
-75 64 -11 10 -43 37 -70 60 -28 23 -118 101 -201 172 -83 72 -175 150 -205
175 -29 25 -69 59 -89 76 -42 36 -154 131 -486 414 -244 209 -289 247 -309
265 -6 6 -101 87 -211 180 -110 93 -202 172 -205 175 -3 3 -34 30 -70 60 -36
30 -76 65 -90 76 -14 12 -79 68 -145 124 -66 56 -133 114 -150 129 -16 14 -88
75 -160 136 -71 60 -132 112 -135 115 -3 3 -61 53 -130 110 -69 58 -127 108
-130 111 -3 3 -68 59 -145 124 -77 65 -142 121 -145 124 -3 4 -30 26 -60 51
-30 25 -71 59 -90 76 -19 17 -164 141 -321 275 -157 134 -451 386 -654 559
-202 173 -403 340 -445 371 -136 98 -303 176 -466 217 -144 36 -207 44 -364
44 -291 0 -571 -89 -812 -258 -116 -81 -281 -249 -357 -363 -222 -335 -295
-715 -210 -1105 26 -124 51 -192 119 -331 102 -206 206 -328 485 -563 52 -44
732 -624 981 -837 154 -132 402 -343 550 -470 148 -126 343 -293 434 -370 254
-218 928 -792 995 -849 33 -28 62 -53 65 -56 3 -3 64 -55 135 -115 72 -60 132
-112 135 -115 3 -3 66 -58 140 -121 74 -62 218 -185 320 -273 102 -87 208
-177 235 -200 28 -24 134 -114 236 -202 103 -87 210 -179 238 -203 28 -24 72
-62 97 -85 l46 -41 -2539 0 c-1396 0 -2563 -3 -2594 -7 -418 -53 -783 -278
-1016 -628 -111 -165 -172 -319 -213 -535 -25 -127 -22 -405 4 -530 110 -513
497 -935 991 -1079 199 -59 67 -56 2708 -56 l2429 0 -34 -27 c-18 -16 -46 -40
-63 -54 -16 -15 -84 -73 -150 -129 -66 -56 -145 -124 -175 -150 -30 -26 -152
-130 -270 -231 -118 -101 -226 -193 -240 -205 -63 -54 -1030 -882 -1174 -1005
-22 -19 -94 -81 -160 -137 -67 -57 -132 -114 -146 -125 -14 -12 -86 -74 -160
-137 -74 -63 -137 -117 -140 -120 -3 -3 -129 -111 -280 -240 -151 -129 -277
-237 -280 -240 -3 -3 -66 -57 -140 -120 -74 -63 -137 -117 -140 -120 -3 -3
-48 -41 -100 -85 -52 -44 -97 -82 -100 -85 -4 -4 -102 -88 -170 -146 -14 -12
-63 -55 -110 -95 -47 -41 -112 -96 -144 -124 -33 -27 -64 -55 -70 -60 -6 -6
-36 -30 -66 -55 -30 -25 -57 -47 -60 -50 -3 -4 -53 -48 -112 -98 -202 -175
-324 -335 -416 -547 -32 -74 -79 -225 -88 -285 -3 -19 -7 -37 -9 -40 -3 -5
-11 -95 -19 -210 -4 -62 11 -220 30 -312 72 -361 290 -684 601 -894 417 -280
968 -317 1414 -94 190 95 81 7 1274 1029 755 647 1035 886 1135 971 39 34 137
117 180 155 26 22 71 61 101 86 63 53 478 409 559 479 30 26 219 188 420 360
201 171 376 321 390 333 14 12 54 47 90 77 36 30 67 57 70 60 3 3 34 30 70 60
36 30 67 57 70 60 3 3 34 30 70 60 36 30 67 57 70 60 3 3 34 30 70 60 36 30
67 57 70 60 3 3 66 57 140 120 74 63 149 127 165 141 17 15 131 113 255 219
124 105 236 201 250 213 14 13 70 60 125 107 55 47 102 87 105 90 3 3 82 71
175 150 94 80 172 147 175 150 3 3 34 30 70 60 36 30 67 57 70 60 3 3 34 30
70 60 36 30 70 60 76 65 6 6 35 31 65 56 75 64 765 654 871 745 l87 74 4815
-2 4816 -3 -3445 -3445 -3444 -3445 -73 -1 c-40 0 -111 -4 -158 -8 -110 -9
-167 -14 -265 -21 -44 -3 -100 -8 -125 -10 -25 -2 -81 -6 -125 -10 -44 -3
-106 -8 -137 -10 -114 -10 -174 -14 -248 -20 -41 -3 -97 -8 -125 -10 -27 -2
-86 -7 -130 -10 -44 -3 -100 -8 -125 -10 -25 -2 -85 -7 -135 -10 -49 -3 -106
-8 -125 -10 -19 -3 -75 -7 -125 -10 -49 -3 -110 -8 -135 -10 -25 -3 -75 -7
-112 -10 -77 -6 -177 -13 -258 -20 -30 -2 -89 -7 -130 -10 -41 -3 -100 -8
-130 -10 -30 -2 -89 -7 -130 -10 -41 -3 -95 -8 -120 -10 -25 -2 -83 -7 -130
-10 -47 -3 -105 -8 -130 -10 -25 -2 -79 -7 -120 -10 -41 -3 -100 -8 -130 -10
-30 -2 -89 -7 -130 -10 -78 -6 -144 -11 -245 -19 -33 -3 -94 -8 -135 -11 -41
-3 -97 -8 -125 -10 -27 -2 -86 -7 -130 -10 -44 -3 -102 -7 -130 -10 -27 -2
-86 -7 -130 -10 -44 -3 -98 -8 -120 -10 -22 -2 -78 -7 -125 -10 -47 -3 -105
-7 -130 -10 -25 -2 -83 -7 -130 -10 -47 -3 -105 -8 -130 -10 -25 -2 -79 -7
-120 -10 -41 -3 -100 -8 -130 -10 -30 -3 -89 -7 -130 -10 -41 -3 -97 -8 -125
-10 -27 -2 -86 -7 -130 -10 -44 -3 -100 -8 -125 -10 -25 -2 -83 -7 -130 -10
-47 -3 -105 -8 -130 -10 -25 -3 -79 -7 -120 -10 -41 -3 -100 -7 -130 -10 -30
-2 -89 -7 -130 -10 -41 -3 -95 -8 -120 -10 -25 -3 -83 -7 -130 -10 -96 -7
-427 -32 -510 -40 -30 -3 -145 -12 -255 -20 -110 -8 -225 -17 -255 -20 -76 -6
-154 -12 -380 -30 -264 -20 -329 -25 -370 -30 -19 -2 -75 -6 -125 -10 -49 -3
-110 -8 -135 -10 -25 -2 -81 -7 -125 -10 -79 -5 -131 -10 -250 -20 -60 -5
-108 -9 -260 -20 -209 -15 -306 -30 -430 -67 -311 -92 -610 -316 -782 -588
-235 -370 -289 -809 -152 -1224 114 -341 366 -636 690 -805 114 -60 232 -102
370 -133 84 -18 134 -23 264 -23 88 0 203 4 255 8 168 14 161 13 400 32 25 2
86 6 135 10 50 3 108 8 130 10 22 2 78 7 125 10 47 3 105 8 130 10 25 2 83 7
130 10 47 3 105 8 130 10 25 2 83 7 130 10 47 3 101 8 120 10 19 2 76 7 125
10 50 3 110 7 135 10 25 2 79 7 120 10 41 3 100 8 130 10 30 2 89 7 130 10 80
6 149 11 245 19 33 3 94 8 135 11 41 3 100 8 130 10 173 13 209 16 250 20 25
2 83 7 130 10 47 3 105 8 130 10 25 2 83 7 130 10 47 3 101 8 120 10 19 2 78
7 130 10 52 4 109 8 125 10 17 2 75 6 130 10 55 4 111 8 125 10 14 2 72 7 130
10 58 4 116 8 130 10 14 2 66 7 115 10 50 3 110 8 135 10 25 2 83 7 130 10 47
3 103 8 125 10 22 2 81 7 130 10 50 3 106 8 125 10 19 2 80 7 135 10 55 4 111
8 125 10 14 2 66 6 115 10 50 3 110 7 135 10 25 2 83 7 130 10 47 3 105 8 130
10 25 2 79 7 120 10 41 3 100 7 130 10 30 3 89 7 130 11 41 3 73 3 70 0 -3 -3
-811 -812 -1795 -1798 -1341 -1344 -1805 -1813 -1848 -1874 -114 -161 -202
-362 -243 -554 -19 -92 -26 -369 -11 -486 33 -264 183 -573 374 -769 218 -224
443 -350 744 -417 149 -33 425 -33 579 1 201 43 395 131 556 252 50 37 702
682 1797 1776 l1718 1718 -5 -45 c-3 -25 -8 -81 -11 -125 -6 -78 -11 -137 -20
-240 -2 -27 -7 -88 -10 -135 -3 -47 -8 -105 -10 -130 -2 -25 -7 -79 -10 -120
-3 -41 -7 -100 -10 -130 -3 -30 -7 -84 -10 -120 -3 -36 -7 -90 -10 -120 -3
-30 -7 -89 -10 -130 -3 -41 -8 -102 -10 -135 -10 -110 -15 -169 -20 -250 -4
-44 -8 -96 -10 -115 -2 -19 -7 -80 -10 -135 -4 -55 -8 -111 -10 -125 -2 -14
-6 -68 -10 -120 -3 -52 -8 -111 -10 -130 -2 -19 -7 -73 -10 -120 -3 -47 -8
-105 -10 -130 -3 -25 -7 -79 -10 -120 -3 -41 -7 -100 -10 -130 -7 -87 -14
-169 -20 -250 -5 -73 -11 -138 -20 -250 -3 -30 -7 -89 -10 -130 -3 -41 -7 -97
-10 -125 -4 -53 -12 -142 -20 -252 -3 -38 -8 -90 -10 -118 -2 -27 -7 -86 -10
-130 -3 -44 -8 -100 -10 -125 -2 -25 -7 -79 -10 -120 -3 -41 -8 -100 -10 -130
-2 -30 -7 -89 -10 -130 -3 -41 -8 -95 -10 -120 -2 -25 -7 -78 -10 -117 -3 -40
-7 -106 -10 -145 -3 -40 -8 -93 -10 -118 -2 -25 -7 -83 -10 -130 -3 -47 -8
-105 -10 -130 -2 -25 -7 -79 -10 -120 -3 -41 -8 -95 -10 -120 -2 -25 -7 -88
-11 -140 -3 -52 -10 -129 -14 -170 -11 -115 -4 -325 14 -426 72 -403 335 -776
691 -980 320 -183 706 -235 1065 -143 246 63 457 185 646 374 262 261 391 559
419 965 3 47 8 105 10 130 2 25 7 79 10 120 3 41 8 95 10 120 2 25 7 88 10
140 4 52 8 106 10 120 2 14 6 68 10 120 3 52 8 115 10 140 8 83 21 238 30 360
6 78 11 144 19 245 3 33 8 94 11 135 3 41 8 95 10 120 2 25 7 86 10 135 4 50
8 101 10 115 2 14 7 72 10 130 4 58 9 112 10 120 2 8 6 67 10 130 4 63 8 122
10 130 2 8 6 62 10 120 3 58 8 116 10 130 2 14 6 68 10 120 3 52 8 111 10 130
2 19 7 73 10 120 3 47 8 105 10 130 2 25 7 79 10 120 3 41 8 102 11 135 11
139 14 174 19 250 3 44 8 100 10 125 3 25 7 81 10 125 3 44 8 96 10 115 2 19
7 78 10 130 3 52 8 111 10 130 2 19 7 73 10 120 3 47 8 105 10 130 2 25 7 79
10 120 6 77 11 148 20 248 2 31 7 91 10 132 3 41 8 100 10 130 5 48 24 298 40
505 3 39 8 90 10 115 2 25 7 81 10 125 3 44 8 105 10 135 15 174 43 527 50
625 3 39 8 97 10 130 3 33 8 85 10 115 2 30 7 89 10 130 3 41 8 95 10 120 2
25 7 81 10 125 3 44 8 103 10 130 2 28 7 86 10 130 3 44 8 100 10 125 2 25 7
79 10 120 6 78 11 142 19 245 3 33 8 94 11 135 3 41 8 95 10 120 2 25 7 83 10
130 4 47 8 101 10 120 2 19 6 76 10 125 3 50 8 110 10 135 3 25 7 81 10 125 3
44 8 96 11 115 4 32 401 432 3617 3645 1986 1986 3607 3603 3601 3595 -6 -8
-27 -41 -47 -72 l-37 -56 0 -4717 0 -4718 -72 -86 c-40 -47 -75 -88 -78 -91
-3 -3 -57 -66 -120 -140 -63 -74 -127 -148 -141 -165 -15 -16 -192 -223 -394
-460 -319 -373 -393 -459 -475 -555 -8 -10 -37 -44 -65 -76 -90 -105 -230
-268 -252 -294 -11 -14 -54 -63 -93 -110 -40 -47 -85 -98 -99 -115 -15 -16
-161 -187 -325 -380 -165 -192 -325 -379 -355 -415 -31 -36 -66 -76 -77 -90
-27 -31 -211 -246 -240 -280 -12 -14 -149 -173 -304 -355 -156 -181 -304 -355
-330 -385 -26 -30 -103 -120 -171 -200 -68 -80 -126 -147 -129 -150 -4 -4 -59
-68 -136 -160 -12 -14 -41 -48 -65 -75 -24 -28 -65 -75 -90 -105 -26 -30 -161
-188 -300 -351 -140 -163 -353 -412 -474 -554 -121 -142 -225 -263 -230 -269
-6 -6 -23 -27 -39 -46 -16 -19 -52 -62 -81 -95 -29 -33 -139 -161 -245 -285
-105 -124 -202 -236 -214 -250 -73 -85 -204 -238 -221 -259 -11 -13 -25 -29
-30 -35 -6 -6 -62 -72 -125 -146 -63 -74 -124 -146 -136 -160 -12 -14 -43 -49
-68 -78 -126 -144 -218 -292 -276 -444 -18 -45 -34 -89 -36 -98 -2 -8 -13 -48
-23 -89 -29 -111 -32 -133 -36 -301 -5 -232 28 -404 119 -609 155 -354 473
-644 836 -765 179 -60 245 -70 445 -71 189 0 226 3 339 29 316 74 584 247 812
526 16 19 43 51 60 70 18 19 197 229 399 465 202 237 389 455 415 485 26 30
76 89 111 130 36 41 74 86 86 100 12 14 178 207 368 430 191 223 460 537 598
699 139 162 266 310 282 330 17 19 50 58 74 85 24 28 53 62 65 76 82 98 195
230 218 255 14 16 245 287 513 600 268 314 497 581 508 595 104 121 159 184
198 231 86 101 98 114 99 104 1 -5 2 -1155 3 -2555 l3 -2545 23 -105 c31 -139
63 -236 116 -345 137 -283 369 -518 650 -657 120 -59 260 -108 356 -123 19 -3
59 -9 89 -14 82 -13 303 -10 397 5 177 28 343 86 496 174 397 227 669 655 705
1110 4 47 7 1155 7 2464 l-1 2378 26 -29 c58 -67 147 -169 299 -348 90 -104
172 -201 184 -215 12 -14 62 -73 112 -130 49 -58 92 -107 95 -110 3 -3 84 -97
180 -210 95 -113 176 -207 180 -210 3 -3 57 -66 120 -140 63 -74 116 -137 119
-140 4 -3 42 -48 86 -100 44 -52 84 -100 90 -106 19 -21 114 -130 300 -349
103 -121 211 -247 240 -280 29 -33 245 -285 480 -560 235 -275 439 -513 454
-530 14 -16 78 -91 141 -165 63 -74 127 -148 141 -165 15 -16 59 -68 99 -115
39 -47 84 -98 99 -115 14 -16 78 -91 141 -165 63 -74 117 -137 120 -140 3 -3
48 -54 100 -115 195 -228 327 -334 540 -434 202 -94 346 -125 580 -126 186 0
236 4 340 28 545 128 952 548 1072 1105 24 111 32 353 16 467 -38 278 -163
550 -351 763 -23 26 -63 72 -89 102 -67 80 -503 588 -548 640 -11 14 -31 36
-42 50 -50 59 -133 155 -138 160 -4 3 -44 50 -90 105 -73 86 -219 256 -390
455 -26 30 -186 217 -355 415 -169 198 -329 385 -355 415 -26 30 -159 186
-295 345 -136 160 -262 306 -279 325 -17 19 -56 64 -86 100 -30 35 -65 76 -77
90 -12 14 -81 95 -154 180 -73 85 -148 173 -168 196 -20 22 -688 802 -1485
1733 l-1450 1692 -1 4757 c0 2616 2 4763 4 4770 2 7 1541 -1525 3421 -3404
l3419 -3417 5 -46 c3 -25 8 -84 11 -131 5 -81 11 -154 20 -265 2 -27 7 -90 10
-140 3 -49 8 -106 10 -125 2 -19 7 -80 10 -135 3 -55 8 -111 10 -125 2 -14 7
-74 11 -135 3 -60 8 -117 9 -125 2 -9 6 -67 10 -130 3 -63 8 -126 10 -140 2
-14 6 -68 10 -120 3 -52 8 -115 10 -140 2 -25 7 -83 10 -130 3 -47 8 -105 10
-130 2 -25 7 -83 10 -130 3 -47 7 -110 10 -140 3 -30 7 -89 10 -130 3 -41 8
-100 10 -130 2 -30 7 -89 10 -130 3 -41 8 -100 10 -130 2 -30 7 -89 10 -130 3
-41 8 -97 10 -125 2 -27 7 -90 10 -140 3 -49 8 -106 10 -125 2 -19 7 -78 10
-130 3 -52 8 -115 10 -140 2 -25 7 -83 10 -130 3 -47 10 -137 15 -200 5 -63
12 -149 15 -190 3 -41 7 -100 10 -130 2 -30 7 -93 10 -140 3 -47 8 -105 10
-130 2 -25 7 -81 10 -125 5 -77 10 -135 20 -255 2 -30 7 -93 10 -140 3 -47 8
-105 10 -130 2 -25 7 -83 10 -130 3 -47 8 -110 10 -140 3 -30 9 -120 15 -200
6 -80 12 -161 15 -180 2 -19 7 -80 10 -135 3 -55 8 -116 10 -135 2 -19 7 -75
10 -125 6 -91 12 -175 20 -275 3 -30 7 -89 10 -130 3 -41 8 -102 11 -135 9
-112 13 -170 19 -250 5 -77 10 -141 20 -270 8 -107 22 -285 30 -400 3 -44 8
-100 10 -125 3 -25 7 -79 10 -120 6 -91 24 -326 30 -395 2 -27 7 -88 10 -135
3 -47 8 -103 10 -125 2 -22 7 -80 10 -130 3 -49 8 -110 10 -135 2 -25 7 -78
10 -118 3 -39 7 -102 10 -140 3 -37 7 -94 10 -127 28 -397 48 -526 108 -686
149 -396 489 -722 885 -848 155 -50 227 -62 392 -68 340 -12 646 83 911 282
88 65 232 215 302 312 160 225 257 519 260 793 1 93 -7 250 -18 350 -2 19 -6
76 -10 125 -3 50 -8 115 -10 145 -3 30 -7 87 -10 125 -3 39 -7 99 -10 135 -10
120 -14 185 -20 265 -3 44 -8 103 -10 130 -2 28 -7 86 -10 130 -18 252 -26
348 -30 385 -2 19 -7 80 -10 135 -4 55 -8 116 -10 135 -2 19 -6 78 -10 130 -3
52 -8 115 -10 140 -5 49 -11 127 -20 265 -4 50 -8 106 -10 125 -2 19 -7 78
-10 130 -3 52 -8 115 -10 140 -7 67 -14 154 -20 260 -4 52 -8 106 -10 120 -2
14 -6 70 -10 125 -3 55 -8 116 -10 135 -2 19 -7 78 -10 130 -4 52 -8 111 -10
130 -2 19 -6 80 -10 135 -3 55 -8 116 -10 135 -2 19 -7 78 -10 130 -3 52 -8
111 -10 130 -2 19 -7 76 -10 125 -3 50 -8 113 -10 140 -2 28 -7 86 -10 130 -3
44 -8 103 -10 130 -2 28 -7 86 -10 130 -3 44 -8 103 -10 130 -3 28 -7 86 -10
130 -6 89 -13 184 -20 260 -2 28 -7 86 -10 130 -3 44 -8 103 -10 130 -2 28 -7
86 -10 130 -3 44 -8 103 -10 130 -2 28 -7 91 -10 140 l-7 90 1804 -1801 c1395
-1393 1820 -1812 1878 -1851 158 -105 292 -167 454 -208 122 -31 150 -35 298
-42 402 -19 773 125 1062 413 199 199 331 441 392 720 23 106 28 397 10 511
-41 240 -147 479 -299 668 -23 28 -808 819 -1746 1758 -938 939 -1708 1710
-1711 1713 -3 3 18 3 45 0 59 -6 142 -13 245 -21 41 -3 98 -8 125 -10 28 -2
84 -7 125 -10 41 -3 95 -8 120 -10 25 -2 79 -6 120 -10 165 -13 192 -15 248
-20 31 -3 143 -12 247 -20 105 -8 222 -17 260 -20 39 -3 90 -8 115 -10 25 -2
83 -7 130 -10 47 -3 101 -8 120 -10 19 -2 73 -7 120 -10 167 -12 206 -15 250
-20 25 -2 79 -7 120 -10 41 -3 100 -7 130 -10 83 -7 167 -14 250 -20 41 -3 95
-8 120 -10 25 -2 79 -7 120 -10 99 -8 160 -12 310 -25 69 -5 153 -12 188 -15
34 -3 90 -7 125 -10 34 -3 118 -10 187 -15 69 -6 157 -13 195 -15 39 -3 90 -8
115 -10 25 -2 79 -7 120 -10 41 -3 100 -7 130 -10 30 -3 82 -7 115 -10 33 -2
87 -7 120 -9 33 -3 94 -8 135 -11 41 -3 95 -7 120 -10 25 -2 81 -7 125 -10 44
-3 96 -7 115 -10 19 -2 80 -7 135 -10 55 -4 114 -8 130 -10 17 -2 75 -7 130
-11 55 -3 107 -7 115 -9 8 -1 65 -6 125 -10 61 -4 119 -9 130 -11 33 -8 276
-7 335 1 322 40 617 184 844 411 199 198 337 459 392 739 27 137 25 407 -4
542 -87 403 -318 727 -670 941 -212 129 -404 180 -777 207 -38 3 -92 7 -120
10 -27 2 -86 7 -130 11 -44 3 -102 8 -130 10 -27 2 -108 8 -180 14 -71 6 -152
12 -180 15 -68 6 -284 24 -370 30 -38 3 -90 8 -115 10 -25 2 -79 7 -120 10
-139 11 -195 15 -250 20 -30 2 -85 7 -122 10 -79 6 -183 14 -248 20 -25 2 -85
7 -135 10 -49 3 -103 8 -120 10 -16 2 -70 6 -120 10 -49 3 -103 8 -120 10 -16
2 -77 7 -135 11 -58 3 -112 8 -120 9 -8 2 -60 6 -115 9 -55 4 -113 9 -130 11
-16 2 -75 7 -130 10 -55 4 -107 9 -115 10 -9 2 -65 6 -125 10 -61 4 -117 8
-125 10 -8 1 -62 6 -120 10 -58 3 -116 8 -130 10 -14 2 -63 6 -110 10 -47 3
-105 8 -130 10 -25 2 -79 7 -120 10 -41 3 -100 8 -130 10 -30 2 -89 7 -130 10
-41 3 -95 8 -120 10 -25 2 -79 7 -120 10 -41 3 -129 10 -195 15 -66 6 -147 13
-180 15 -33 3 -85 7 -115 10 -30 2 -86 7 -125 10 -38 3 -97 8 -130 10 -84 7
-299 24 -365 30 -30 3 -91 7 -135 10 -44 3 -96 7 -115 10 -19 2 -73 7 -120 10
-47 3 -105 8 -130 10 -25 2 -76 7 -115 10 -38 2 -101 7 -140 10 -38 3 -90 7
-115 10 -25 2 -79 7 -120 10 -73 5 -124 9 -245 20 -33 2 -96 7 -140 10 -44 4
-96 8 -115 10 -19 2 -75 7 -125 10 -49 4 -101 8 -115 10 -14 2 -72 6 -130 10
-58 4 -116 8 -130 10 -14 2 -63 6 -110 10 -47 3 -105 8 -130 10 -25 2 -85 7
-135 11 -49 3 -106 8 -125 9 -98 9 -223 19 -370 30 -47 3 -98 8 -115 10 -37 5
-322 25 -393 28 l-53 2 -3504 3505 -3505 3505 4692 3 4691 2 46 -37 c42 -35
86 -72 115 -98 6 -5 40 -35 76 -65 36 -30 70 -59 76 -65 6 -5 35 -30 64 -55
29 -25 58 -49 64 -55 6 -5 40 -35 76 -65 35 -30 76 -65 90 -77 14 -12 237
-202 495 -423 259 -221 484 -414 500 -429 17 -14 91 -78 165 -141 74 -63 149
-127 165 -141 17 -15 111 -96 210 -180 99 -85 191 -164 205 -175 119 -103 488
-418 530 -454 29 -25 58 -49 64 -55 6 -5 40 -35 76 -65 36 -30 67 -57 70 -60
3 -3 66 -57 140 -120 74 -63 140 -119 146 -125 6 -5 35 -30 64 -55 30 -25 75
-63 100 -85 25 -22 70 -61 100 -86 52 -44 327 -280 380 -325 52 -45 475 -407
740 -634 271 -231 322 -275 344 -295 13 -12 272 -233 301 -257 36 -30 189
-160 250 -213 33 -29 159 -137 280 -240 121 -103 247 -211 280 -240 33 -29
161 -139 285 -245 124 -105 248 -211 275 -235 346 -297 512 -437 570 -480 182
-136 379 -218 620 -260 111 -19 393 -14 500 9 284 62 521 191 720 391 283 283
423 626 418 1030 -4 330 -120 637 -344 903 -53 63 -551 500 -1029 902 -29 25
-58 50 -64 55 -9 9 -104 91 -196 169 -14 12 -75 64 -136 116 -60 52 -134 115
-164 140 -29 25 -70 59 -89 77 -20 17 -74 64 -121 103 -47 40 -98 84 -115 99
-16 14 -106 91 -200 171 -93 80 -183 157 -200 171 -16 15 -239 206 -495 424
-256 219 -478 409 -495 424 -16 14 -122 105 -235 201 -113 96 -218 187 -235
201 -16 15 -68 60 -115 99 -47 40 -99 84 -115 99 -17 14 -59 51 -95 81 -36 30
-67 57 -70 60 -3 3 -48 41 -100 85 -52 44 -97 82 -100 85 -3 3 -34 30 -70 60
-36 30 -67 57 -70 60 -3 3 -55 48 -116 100 -61 52 -137 118 -169 145 -32 28
-65 55 -74 62 -13 10 518 13 2489 13 1378 1 2528 3 2555 5 44 4 90 11 200 30
61 11 218 66 298 104 389 186 671 536 774 961 35 145 42 425 14 575 -73 396
-301 731 -651 957 -148 96 -365 172 -575 202 -16 2 -1130 5 -2475 5 l-2445 2
36 32 c36 33 46 41 159 137 36 30 67 57 70 60 3 3 46 39 95 80 50 41 92 77 95
80 3 3 50 43 105 90 55 47 102 87 105 90 4 4 264 225 359 305 13 11 29 25 35
30 11 11 177 152 651 555 138 117 275 234 305 260 30 26 89 76 130 111 41 35
86 73 100 85 14 12 88 75 165 141 215 183 633 540 695 593 30 26 163 139 295
251 132 112 251 213 265 225 38 33 598 510 654 557 307 259 370 323 472 474
277 414 316 950 103 1400 -88 186 -258 396 -417 517 -483 367 -1147 390 -1652
57 -41 -27 -235 -185 -430 -352 -458 -390 -821 -699 -890 -759 -95 -82 -262
-224 -335 -285 -38 -33 -75 -64 -81 -70 -6 -5 -35 -30 -64 -55 -30 -25 -104
-88 -165 -140 -62 -52 -163 -138 -226 -192 -140 -118 -646 -549 -790 -672 -58
-50 -130 -112 -160 -137 -30 -26 -108 -92 -174 -149 -121 -103 -195 -166 -270
-230 -76 -65 -149 -127 -270 -230 -66 -56 -142 -121 -170 -145 -95 -81 -220
-187 -245 -209 -14 -12 -146 -125 -295 -251 -148 -126 -304 -258 -345 -294
-41 -35 -100 -85 -130 -112 -91 -77 -481 -410 -690 -586 -107 -91 -213 -182
-235 -202 -22 -20 -60 -52 -85 -72 -25 -20 -56 -47 -70 -59 -14 -12 -47 -40
-74 -63 -27 -23 -84 -71 -126 -107 -41 -36 -150 -128 -240 -205 -91 -77 -230
-196 -311 -265 -80 -69 -170 -145 -200 -170 -29 -25 -72 -62 -95 -82 l-41 -38
-4819 0 -4819 0 3463 3463 c1904 1904 3470 3463 3480 3463 25 1 221 15 262 19
19 2 76 6 125 10 50 3 110 8 135 10 25 2 83 7 130 10 47 3 105 8 130 10 25 2
83 7 130 10 47 3 105 8 130 10 25 2 79 7 120 10 41 3 100 8 130 10 30 2 89 7
130 10 41 3 100 8 130 10 30 2 89 7 130 10 41 3 100 7 130 10 30 3 89 7 130
10 41 3 100 8 130 10 30 2 89 7 130 10 41 3 100 8 130 10 30 3 89 7 130 10 41
3 100 8 130 10 30 2 84 7 120 10 36 2 95 7 133 10 37 3 97 7 135 10 37 3 92 7
122 10 68 6 156 12 330 25 178 14 254 20 315 25 28 2 91 7 140 10 50 3 106 8
125 10 19 2 80 7 135 10 55 3 111 8 125 10 14 2 72 7 130 10 58 4 116 8 130
10 14 2 72 6 130 10 58 3 116 8 130 10 14 2 68 7 120 10 52 3 115 8 140 10 25
2 79 7 120 10 41 3 100 8 130 10 30 2 89 7 130 10 41 3 100 8 130 10 30 2 89
7 130 10 41 3 100 8 130 10 30 2 89 7 130 10 41 3 98 8 125 10 28 2 86 7 130
10 44 3 103 8 130 10 28 2 91 7 140 10 50 3 101 8 115 10 14 2 75 7 135 10 61
3 121 8 135 10 14 2 70 7 125 10 55 3 111 8 125 10 14 2 75 7 135 10 61 3 121
8 135 10 14 2 70 7 125 10 55 4 111 8 125 10 14 2 68 6 120 10 52 3 115 8 140
10 25 2 83 7 130 10 47 3 101 8 120 10 19 2 82 7 140 11 58 3 107 7 110 9 3 2
57 6 120 10 63 4 131 8 150 10 64 6 185 16 390 30 47 3 105 8 130 10 25 3 77
7 115 10 320 25 365 31 503 71 102 30 284 115 373 174 311 208 528 526 611
895 26 117 33 393 13 510 -64 383 -252 692 -560 926 -137 104 -390 217 -555
248 -30 6 -68 13 -85 16 -52 11 -297 14 -385 5 -47 -5 -128 -11 -180 -15 -52
-3 -111 -8 -130 -10 -19 -2 -82 -7 -140 -11 -58 -3 -112 -8 -121 -9 -8 -2 -60
-6 -115 -9 -54 -4 -124 -8 -154 -11 -57 -5 -133 -11 -260 -20 -41 -3 -102 -8
-135 -11 -91 -7 -163 -13 -245 -19 -41 -3 -100 -8 -130 -10 -30 -2 -89 -7
-130 -10 -41 -3 -100 -8 -130 -10 -50 -4 -89 -7 -260 -20 -59 -5 -170 -13
-260 -20 -30 -3 -91 -7 -135 -10 -44 -4 -98 -8 -120 -10 -22 -3 -80 -7 -130
-10 -49 -3 -110 -7 -135 -10 -25 -2 -85 -7 -135 -11 -49 -3 -105 -7 -123 -9
-18 -3 -77 -7 -130 -10 -53 -3 -113 -8 -132 -10 -19 -2 -73 -7 -120 -10 -47
-3 -105 -8 -130 -10 -25 -2 -83 -7 -130 -10 -47 -3 -105 -8 -130 -10 -25 -3
-83 -7 -130 -10 -47 -3 -105 -8 -130 -10 -25 -2 -79 -7 -120 -10 -187 -14
-218 -16 -270 -20 -30 -3 -89 -7 -130 -10 -41 -3 -97 -8 -125 -10 -27 -2 -90
-7 -140 -10 -49 -3 -101 -8 -115 -10 -14 -2 -74 -7 -135 -10 -60 -3 -121 -8
-135 -10 -14 -2 -68 -7 -120 -10 -52 -3 -111 -8 -130 -10 -19 -2 -78 -7 -130
-10 -52 -3 -111 -8 -130 -10 -19 -2 -78 -7 -130 -10 -52 -4 -104 -9 -115 -12
-11 -3 -17 -2 -12 3 4 5 810 812 1791 1794 1273 1274 1801 1809 1844 1868 128
175 231 425 259 630 4 31 8 134 7 227 0 138 -5 190 -23 275 -61 282 -183 503
-391 710 -208 208 -434 330 -723 392 -134 28 -385 30 -527 5 -216 -40 -420
-129 -605 -266 -33 -24 -832 -815 -1775 -1758 l-1716 -1714 7 78 c4 43 10 128
13 188 4 61 9 117 11 125 2 8 7 69 10 135 4 66 8 122 10 125 1 3 6 59 10 125
4 65 8 126 10 135 1 8 6 65 9 125 4 61 9 121 11 135 2 14 7 70 10 125 3 55 8
116 10 135 2 19 6 76 10 125 3 50 7 110 10 135 2 25 7 81 10 125 3 44 7 103
10 130 2 28 7 86 10 130 3 44 8 103 10 130 10 124 15 185 20 260 3 44 8 100
10 125 2 25 7 83 10 130 3 47 8 105 10 130 4 45 10 121 20 260 3 41 8 95 10
120 2 25 7 88 10 140 4 52 8 106 10 120 2 14 6 72 10 130 4 58 8 116 10 130 2
14 6 72 10 130 3 58 8 121 10 140 2 19 7 73 10 120 3 47 8 105 10 130 3 25 7
83 10 130 3 47 7 101 10 120 2 19 7 80 10 135 3 55 8 116 10 135 2 19 7 76 10
125 3 50 8 108 10 130 2 22 7 83 10 135 3 52 8 111 10 130 3 19 7 80 10 135 3
56 7 110 9 120 2 11 7 70 11 130 3 61 9 124 11 140 11 66 10 286 -2 380 -41
319 -190 615 -425 841 -267 256 -613 395 -984 396 -383 0 -728 -144 -1000
-417 -197 -196 -315 -405 -379 -670 -29 -117 -31 -134 -51 -405 -3 -36 -7 -90
-10 -120 -3 -30 -7 -91 -10 -135 -3 -44 -7 -100 -10 -125 -2 -25 -7 -83 -10
-130 -3 -47 -8 -105 -10 -130 -2 -25 -7 -79 -10 -120 -3 -41 -8 -100 -10 -130
-2 -30 -7 -89 -10 -130 -3 -41 -8 -100 -10 -130 -2 -30 -7 -89 -10 -130 -3
-41 -8 -95 -10 -120 -3 -25 -7 -88 -10 -140 -3 -52 -7 -111 -10 -130 -2 -19
-6 -75 -10 -125 -3 -49 -8 -106 -10 -125 -2 -19 -7 -80 -10 -135 -3 -55 -8
-113 -10 -130 -2 -16 -7 -73 -10 -125 -3 -52 -8 -113 -10 -135 -2 -22 -7 -80
-10 -130 -3 -49 -8 -108 -10 -130 -2 -22 -6 -76 -10 -120 -11 -148 -15 -210
-20 -260 -2 -27 -7 -90 -10 -140 -3 -49 -8 -106 -10 -125 -2 -19 -7 -80 -10
-135 -4 -55 -8 -111 -10 -125 -2 -14 -7 -74 -10 -135 -4 -60 -9 -117 -10 -125
-1 -8 -6 -62 -9 -120 -4 -58 -9 -121 -11 -140 -2 -19 -7 -73 -10 -120 -5 -81
-9 -125 -20 -257 -2 -32 -7 -91 -10 -130 -12 -170 -16 -220 -20 -263 -2 -25
-7 -83 -10 -130 -3 -47 -8 -105 -10 -130 -2 -25 -7 -83 -10 -130 -3 -47 -8
-105 -10 -130 -2 -25 -7 -85 -10 -135 -3 -49 -8 -106 -10 -125 -2 -19 -7 -80
-10 -135 -4 -55 -8 -111 -10 -125 -2 -14 -6 -68 -10 -120 -3 -52 -8 -115 -10
-140 -2 -25 -7 -83 -10 -130 -3 -47 -8 -105 -10 -130 -4 -45 -10 -120 -20
-255 -3 -38 -9 -126 -15 -195 -6 -69 -12 -156 -15 -195 -6 -70 -10 -120 -20
-250 -3 -38 -8 -104 -10 -145 -3 -41 -7 -97 -10 -125 -2 -27 -7 -88 -10 -135
-3 -47 -8 -105 -10 -130 -2 -25 -7 -79 -10 -120 -3 -41 -8 -100 -10 -130 -2
-30 -7 -89 -10 -130 -3 -41 -8 -102 -10 -135 -3 -33 -7 -85 -10 -115 -2 -30
-7 -93 -10 -140 -3 -47 -8 -105 -10 -130 -2 -25 -7 -83 -10 -130 -3 -47 -8
-96 -11 -110 -3 -17 -1137 -1158 -3514 -3534 l-3510 -3509 0 4714 1 4714 37
41 c20 22 136 157 257 299 121 142 225 263 230 269 6 6 54 63 109 126 109 128
97 114 256 300 124 146 125 147 226 265 84 98 81 93 249 290 75 88 146 171
158 185 13 14 60 70 107 125 47 55 87 102 90 105 3 3 30 34 60 70 30 36 57 67
60 70 3 3 57 66 120 140 63 74 119 140 125 146 5 6 29 33 51 60 60 70 1013
1183 1077 1258 10 11 37 43 60 70 23 27 56 65 73 85 17 20 140 164 274 321
134 157 248 290 254 295 6 6 58 66 116 135 57 69 117 139 131 155 46 52 232
269 279 325 43 51 103 122 125 146 6 6 30 35 55 64 51 62 398 467 469 550 27
30 200 233 385 450 186 217 360 420 386 450 26 30 94 109 150 175 56 66 112
131 124 145 173 198 243 296 311 435 98 200 138 377 139 610 1 168 -5 231 -36
355 -47 192 -128 357 -261 535 -55 74 -222 230 -312 291 -169 115 -360 195
-555 231 -127 23 -380 23 -505 -1 -242 -45 -469 -152 -656 -308 -87 -72 -116
-103 -360 -389 -26 -30 -75 -88 -111 -129 -35 -41 -74 -86 -86 -100 -46 -54
-767 -898 -812 -950 -26 -30 -213 -248 -415 -485 -202 -236 -389 -455 -415
-485 -26 -30 -63 -73 -81 -95 -19 -22 -46 -53 -60 -70 -15 -16 -100 -115 -189
-220 -89 -104 -183 -215 -209 -245 -63 -72 -712 -831 -1010 -1180 -380 -444
-463 -540 -470 -540 -3 0 -6 1131 -6 2513 0 1381 -3 2541 -7 2577 -46 435
-303 837 -681 1064 -161 96 -315 152 -517 187 -77 14 -281 18 -370 8z"/>
</g>
</svg>
